Coordinates
version=1
nRows=10
nColumns=63
inDegrees=yes

Units are S.I. units (second, meters, Newtons, ...)
If the header above contains a line with 'inDegrees', this indicates whether rotational values are in degrees (yes) or radians (no).

endheader
time	pelvis_tilt	pelvis_list	pelvis_rotation	pelvis_tx	pelvis_ty	pelvis_tz	hip_flexion_r	hip_adduction_r	hip_rotation_r	knee_angle_r	knee_angle_r_beta	ankle_angle_r	subtalar_angle_r	mtp_angle_r	hip_flexion_l	hip_adduction_l	hip_rotation_l	knee_angle_l	knee_angle_l_beta	ankle_angle_l	subtalar_angle_l	mtp_angle_l	L5_S1_Flex_Ext	L5_S1_Lat_Bending	L5_S1_axial_rotation	L4_L5_Flex_Ext	L4_L5_Lat_Bending	L4_L5_axial_rotation	L3_L4_Flex_Ext	L3_L4_Lat_Bending	L3_L4_axial_rotation	L2_L3_Flex_Ext	L2_L3_Lat_Bending	L2_L3_axial_rotation	L1_L2_Flex_Ext	L1_L2_Lat_Bending	L1_L2_axial_rotation	L1_T12_Flex_Ext	L1_T12_Lat_Bending	L1_T12_axial_rotation	Abs_r3	Abs_r2	Abs_r1	Abs_t1	Abs_t2	neck_flexion	neck_bending	neck_rotation	arm_flex_r	arm_add_r	arm_rot_r	elbow_flex_r	pro_sup_r	wrist_flex_r	wrist_dev_r	arm_flex_l	arm_add_l	arm_rot_l	elbow_flex_l	pro_sup_l	wrist_flex_l	wrist_dev_l
      0.00000000	      7.07501135	     -1.61855248	     82.26670021	     -0.10264331	      0.75446963	      0.70500547	      3.90815217	      4.47512936	     -4.52488454	      7.96058063	      0.13893834	     28.65329470	     15.33666691	      0.00000000	      0.23324130	     -5.69307190	      1.89354430	      0.78451724	      0.01369241	     31.73031050	     -8.20301625	      0.00000000	     -0.06050015	      0.87136867	      1.09798740	     -0.11235484	      1.15892033	      1.16661161	     -0.09939570	      2.11864578	      1.16661161	     -0.06914563	      2.11864578	      0.96073897	     -0.05618044	      1.77689499	      0.89211476	     -0.03456979	      1.34975007	      0.82349055	     -0.43214655	      9.85709667	      6.10667651	      0.00000000	      0.00000000	     22.04095115	     -3.58410321	      3.02354241	      4.88278989	    -15.24292298	    114.53761428	      9.36306199	      3.48251794	     -6.91578417	    -15.27769547	     14.66414302	     -2.54029312	    134.78276027	      7.52456834	      2.70725376	     -3.51345612	    -10.96423243
      0.01666667	      7.14491017	     -1.69732660	     82.36150244	     -0.10295958	      0.75444077	      0.70475619	      4.00686973	      4.52828035	     -4.47805108	      7.78478802	      0.13587018	     29.03696327	     15.26578381	      0.00000000	      0.21284738	     -5.71542421	      2.02829454	      0.99607732	      0.01738483	     31.09831843	     -8.11708908	      0.00000000	     -0.06864013	      0.87823894	      1.11836342	     -0.12747159	      1.16805779	      1.18826113	     -0.11276887	      2.13535015	      1.18826113	     -0.07844881	      2.13535015	      0.97856799	     -0.06373923	      1.79090484	      0.90867028	     -0.03922097	      1.36039211	      0.83877256	     -0.49028959	      9.93481451	      6.22000181	      0.00000000	      0.00000000	     22.32107284	     -3.47547972	      3.09589164	      4.70126581	    -15.33605560	    114.55784140	      9.38683576	      3.46149726	     -6.95726313	    -15.13066341	     14.86233367	     -2.41721331	    134.69742040	      7.36801237	      2.60693466	     -3.52020587	    -11.06857585
      0.03333333	      7.23346849	     -1.64073608	     82.88128251	     -0.10349279	      0.75454202	      0.70455914	      3.40859798	      4.82981330	     -1.18251893	      6.40145798	      0.11172652	     28.14159871	     10.74869646	      0.00000000	      0.07205110	     -5.70328670	      7.09217604	      0.86121831	      0.01503110	     28.96476618	    -14.75387196	      0.00000000	     -0.11312937	      0.89057492	      0.98404007	     -0.21009255	      1.18446464	      1.04554258	     -0.18586024	      2.16534385	      1.04554258	     -0.12929555	      2.16534385	      0.86103507	     -0.10505193	      1.81606037	      0.79953256	     -0.06464212	      1.37950054	      0.73803006	     -0.80807175	     10.07436156	      5.47293568	      0.00000000	      0.00000000	     23.35701105	     -2.74231362	      4.69985919	      4.82358965	    -15.34987592	    114.68411548	      9.39173218	      3.43293735	     -7.23137378	    -14.68450275	     14.95214553	     -2.31785147	    135.31227466	      6.99224657	      2.34824955	     -3.40680894	    -11.18923231
      0.05000000	      7.23158944	     -1.70010572	     82.98160314	     -0.10372387	      0.75445580	      0.70455095	      3.41474638	      4.84068725	     -0.78566285	      6.17711353	      0.10781097	     28.11719312	     10.19882325	      0.00000000	      0.13969822	     -5.66912756	      7.42305676	      0.90702155	      0.01583051	     28.75198770	    -15.16613838	      0.00000000	     -0.12367702	      0.89632658	      0.95028816	     -0.22968059	      1.19211435	      1.00968117	     -0.20318897	      2.17932845	      1.00968117	     -0.14135046	      2.17932845	      0.83150214	     -0.11484648	      1.82778916	      0.77210913	     -0.07066905	      1.38840987	      0.71271612	     -0.88341255	     10.13942553	      5.28521767	      0.00000000	      0.00000000	     23.76462202	     -2.53795351	      5.43713860	      4.77452808	    -15.45916340	    114.70176142	      9.42844900	      3.40338150	     -7.23030262	    -14.61808356	     15.09723998	     -2.17344130	    136.37369911	      6.88781772	      2.40043698	     -3.64836733	    -10.76404310
      0.06666667	      7.24316515	     -1.73789635	     83.10766250	     -0.10394874	      0.75435705	      0.70439471	      3.36061763	      4.87280482	     -0.30970600	      5.95339505	      0.10390635	     28.00237646	      9.48807994	      0.00000000	      0.20530090	     -5.66981928	      7.64030431	      0.91223128	      0.01592144	     28.88725481	    -15.28088542	      0.00000000	     -0.12520650	      0.90509929	      0.89999506	     -0.23252099	      1.20378206	      0.95624475	     -0.20570176	      2.20065842	      0.95624475	     -0.14309851	      2.20065842	      0.78749568	     -0.11626675	      1.84567847	      0.73124599	     -0.07154299	      1.40199880	      0.67499629	     -0.89433749	     10.23866420	      5.00550252	      0.00000000	      0.00000000	     23.95120817	     -2.44524721	      6.09874586	      4.68482674	    -15.60863415	    114.46523897	      9.52264028	      3.51628363	     -7.27559102	    -14.66211222	     15.22059571	     -2.02796976	    137.73724207	      6.92763302	      2.43418202	     -4.05766146	    -10.17961772
      0.08333333	      7.11215157	     -1.80342338	     83.09731089	     -0.10391101	      0.75416035	      0.70460865	      3.54115626	      4.71281146	     -0.98449923	      6.15299127	      0.10738996	     28.23143770	     10.32472172	      0.00000000	      0.36509596	     -5.53139488	      7.24847483	      0.93067947	      0.01624342	     29.27824220	    -14.87098095	      0.00000000	     -0.12667362	      0.89573516	      0.88423912	     -0.23524559	      1.19132776	      0.93950406	     -0.20811210	      2.17789046	      0.93950406	     -0.14477528	      2.17789046	      0.77370923	     -0.11762913	      1.82658313	      0.71844428	     -0.07238131	      1.38749376	      0.66317934	     -0.90481702	     10.13273525	      4.91787270	      0.00000000	      0.00000000	     24.14339203	     -2.40923476	      6.64155640	      4.59495959	    -15.66803303	    114.30658938	      9.48993164	      3.53255062	     -7.19817690	    -14.70611031	     15.34996709	     -1.87652899	    139.79777820	      6.77859279	      2.37681554	     -4.27867311	     -9.56049632
      0.10000000	      7.22407528	     -1.85674226	     83.24741965	     -0.10397239	      0.75400188	      0.70431085	      3.34592395	      4.92431154	      0.56568142	      5.66960752	      0.09895332	     27.70403150	      8.18564963	      0.00000000	      0.44885244	     -5.66638731	      7.67937853	      0.87834300	      0.01532998	     29.62222035	    -15.32973082	      0.00000000	     -0.11532770	      0.91316680	      0.82983856	     -0.21417508	      1.21451185	      0.88170347	     -0.18947188	      2.22027376	      0.88170347	     -0.13180803	      2.22027376	      0.72610874	     -0.10709331	      1.86212974	      0.67424383	     -0.06589825	      1.41449537	      0.62237892	     -0.82377426	     10.32992549	      4.61531314	      0.00000000	      0.00000000	     24.18108584	     -2.36336111	      7.09880655	      4.45196451	    -15.84784541	    113.88511708	      9.59925549	      3.65296928	     -7.22778677	    -14.76499836	     15.39511610	     -1.80202103	    140.10155444	      7.02851683	      2.59593366	     -4.66152805	     -9.14870438
      0.11666667	      7.34332747	     -1.84892675	     83.32866980	     -0.10400711	      0.75390147	      0.70418776	      3.22622240	      5.06630520	      0.81536909	      5.47561411	      0.09556749	     27.61117434	      7.84292205	      0.00000000	      0.46886074	     -5.80445402	      7.78401795	      0.84830871	      0.01480578	     30.04782442	    -15.33550143	      0.00000000	     -0.11402537	      0.93009679	      0.79955351	     -0.21175651	      1.23702873	      0.84952560	     -0.18733227	      2.26143733	      0.84952560	     -0.13031959	      2.26143733	      0.69960932	     -0.10588395	      1.89665337	      0.64963723	     -0.06515409	      1.44071992	      0.59966513	     -0.81447178	     10.52144088	      4.44687675	      0.00000000	      0.00000000	     24.12290094	     -2.29632625	      7.42587774	      4.33801621	    -16.03933346	    113.37230798	      9.71552722	      3.69982005	     -7.15167638	    -14.86659621	     15.46340839	     -1.75719658	    139.68359523	      7.31897404	      2.70310326	     -4.89656727	     -9.08633100
      0.13333333	      7.36466371	     -1.93252999	     83.29694317	     -0.10367166	      0.75363606	      0.70461256	      3.50224102	      5.06966100	     -0.18122001	      5.85622272	      0.10221037	     27.94016720	      9.08528248	      0.00000000	      0.60639328	     -5.86060389	      7.56679980	      0.84572917	      0.01476076	     30.33170277	    -15.21766183	      0.00000000	     -0.11271662	      0.92918049	      0.79427375	     -0.20932604	      1.23581005	      0.84391585	     -0.18518214	      2.25920944	      0.84391585	     -0.12882383	      2.25920944	      0.69498953	     -0.10466866	      1.89478485	      0.64534742	     -0.06440628	      1.43930057	      0.59570531	     -0.80512356	     10.51107550	      4.41751229	      0.00000000	      0.00000000	     24.28619747	     -2.37704327	      7.35181186	      4.32992230	    -16.05598759	    113.41952068	      9.66297117	      3.59152061	     -7.07495307	    -14.86205432	     15.60822864	     -1.84436135	    138.57379456	      7.64806622	      2.85675031	     -5.08562959	     -9.26935477
      0.15000000	      7.50862706	     -1.94520741	     83.45221775	     -0.10343030	      0.75340696	      0.70460220	      3.36655859	      5.30064264	      0.72511237	      5.57753911	      0.09734642	     27.63246178	      7.73760267	      0.00000000	      0.65130575	     -6.05059419	      7.62554659	      0.85456705	      0.01491501	     30.49089902	    -15.09157216	      0.00000000	     -0.11514610	      0.93643441	      0.76226660	     -0.21383783	      1.24545776	      0.80990826	     -0.18917353	      2.27684662	      0.80990826	     -0.13160048	      2.27684662	      0.66698327	     -0.10692467	      1.90957705	      0.61934161	     -0.06579448	      1.45053690	      0.57169995	     -0.82247710	     10.59313332	      4.23949815	      0.00000000	      0.00000000	     24.41347430	     -2.41288175	      6.91165437	      4.25661263	    -16.10348572	    112.93689166	      9.74096145	      3.66741039	     -7.11384129	    -14.78979014	     15.68717806	     -1.94529138	    137.11652694	      7.91222466	      2.86795584	     -5.20034656	     -9.65280382
